<svg xmlns="http://www.w3.org/2000/svg" aria-hidden="true" style="position:absolute;width:0;height:0;overflow:hidden">
  <defs>
    <symbol id="icon-facebook" viewBox="0 0 32 32">
      <path d="M19.52 4.64h.96v3.6h-1.2c-.48 0-.96 0-1.2.24s-.24.48-.24 1.04v1.28h2.64v3.04h-2.64v13.2h-4.08V13.76H11.6v-3.04h2.16V9.68c0-1.76.24-3.04.72-3.6.72-1.04 2.16-1.52 4.32-1.52.24.08.48.08.72.08z"/>
    </symbol>
    <symbol id="icon-instagram" viewBox="0 0 32 32">
      <path d="M28.718 10.756a9.264 9.264 0 0 0-.596-3.145 6.547 6.547 0 0 0-3.743-3.737 9.42 9.42 0 0 0-3.108-.596c-1.368-.061-1.801-.078-5.273-.078s-3.916 0-5.274.078a9.418 9.418 0 0 0-3.106.596 6.541 6.541 0 0 0-3.743 3.737 9.288 9.288 0 0 0-.596 3.101c-.061 1.367-.08 1.8-.08 5.265s0 3.909.08 5.265a9.335 9.335 0 0 0 .596 3.104 6.55 6.55 0 0 0 3.744 3.736c.989.386 2.04.604 3.106.639 1.369.061 1.803.08 5.274.08s3.916 0 5.274-.08a9.362 9.362 0 0 0 3.108-.595 6.555 6.555 0 0 0 3.743-3.737 9.35 9.35 0 0 0 .596-3.104c.061-1.365.08-1.798.08-5.265-.003-3.466-.003-3.906-.082-5.264zM15.99 22.531c-3.631 0-6.572-2.936-6.572-6.561s2.941-6.561 6.572-6.561c3.628 0 6.572 2.936 6.572 6.561s-2.944 6.561-6.572 6.561zm6.834-11.835a1.53 1.53 0 1 1 0-3.06 1.53 1.53 0 1 1 0 3.06z"/>
      <path d="M15.992 19.976a4.004 4.004 0 1 0 0-8.009 4.004 4.004 0 0 0 0 8.009z"/>
    </symbol>
    <symbol id="icon-youtube" viewBox="0 0 32 32">
      <path d="M24.24 6c-1.36-.08-4.16-.16-8.4-.16h-.56c-4.08 0-6.8.08-8.16.24-1.84.16-3.12.64-3.84 1.28-.64.56-1.12 1.6-1.28 2.96-.08.88-.16 2.72-.16 5.52v.4c0 2.64.08 4.48.24 5.36.24 1.28.64 2.24 1.44 2.8.8.64 2.16 1.04 4.08 1.2 1.36.08 4.16.16 8.4.16h.56c4.08 0 6.8-.08 8.16-.24 1.84-.16 3.12-.64 3.84-1.28.64-.56 1.12-1.6 1.28-2.96.08-.88.16-2.72.16-5.52v-.4c0-2.64-.08-4.48-.24-5.36-.24-1.28-.64-2.24-1.44-2.8-.8-.64-2.16-1.04-4.08-1.2zm-3.12 9.84-8.8 5.28V10.56l8.8 5.28z"/>
    </symbol>
    <
    <symbol id="icon-icon-green" viewBox="0 0 32 32">
      <path d="M7.226 19.719 4.842 30.042a1.596 1.596 0 0 0 2.447 1.691l8.712-5.808 8.712 5.808a1.604 1.604 0 0 0 1.829-.04 1.606 1.606 0 0 0 .598-1.729l-2.926-10.24 7.258-6.531a1.604 1.604 0 0 0-.088-2.452 1.594 1.594 0 0 0-.856-.332l-9.122-.726L17.459.945A1.6 1.6 0 0 0 16.002 0a1.591 1.591 0 0 0-1.457.945l-3.947 8.738-9.122.725a1.597 1.597 0 0 0-1.378 1.051 1.597 1.597 0 0 0 .388 1.69l6.742 6.571z" style="fill:var(--color1, #3ac04c)"/>
    </symbol>
    <symbol id="icon-icon" viewBox="0 0 32 32">
      <path  d="M7.226 19.719 4.842 30.042a1.596 1.596 0 0 0 2.447 1.691l8.712-5.808 8.712 5.808a1.604 1.604 0 0 0 1.829-.04 1.606 1.606 0 0 0 .598-1.729l-2.926-10.24 7.258-6.531a1.604 1.604 0 0 0-.088-2.452 1.594 1.594 0 0 0-.856-.332l-9.122-.726L17.459.945A1.6 1.6 0 0 0 16.002 0a1.591 1.591 0 0 0-1.457.945l-3.947 8.738-9.122.725a1.597 1.597 0 0 0-1.378 1.051 1.597 1.597 0 0 0 .388 1.69l6.742 6.571zm4.564-6.921a1.598 1.598 0 0 0 1.331-.937l2.878-6.37 2.878 6.37a1.597 1.597 0 0 0 1.331.937l6.355.504-5.234 4.71a1.605 1.605 0 0 0-.469 1.629l2.005 7.016-5.978-3.986a1.591 1.591 0 0 0-1.774 0l-6.246 4.165 1.68-7.274a1.6 1.6 0 0 0-.442-1.504l-4.861-4.739 6.544-.522z" style="fill:var(--color1, #3ac04c)"/>
    </symbol>
  </defs>
</svg>